<?xml version="1.0" encoding="UTF-8"?>
<svg id="_图层_2" data-name="图层 2" xmlns="http://www.w3.org/2000/svg" viewBox="0 0 151.66 64.87">
  <defs>
    <style>
      .cls-1, .cls-2 {
        fill: #036eb8;
      }

      .cls-3 {
        font-size: 2px;
      }

      .cls-2 {
        font-family: Arial-BoldMT, Arial;
        font-weight: 700;
      }

      .cls-4 {
        letter-spacing: -.04em;
      }

      .cls-4, .cls-5 {
        font-size: 24px;
      }

      .cls-6 {
        fill: none;
        stroke: #97999b;
        stroke-miterlimit: 10;
        stroke-width: 2px;
      }

      .cls-7 {
        font-size: 22px;
      }
    </style>
  </defs>
  <g id="_图层_1-2" data-name="图层 1">
    <polygon class="cls-6" points="27.47 24.08 14.24 31.72 1 24.08 1 8.8 14.24 1.15 27.47 8.8 27.47 24.08"/>
    <polygon class="cls-6" points="27.47 56.07 14.24 63.71 1 56.07 1 40.79 14.24 33.14 27.47 40.79 27.47 56.07"/>
    <text class="cls-2" transform="translate(4.14 25.38)"><tspan class="cls-5" x="0" y="0">M </tspan><tspan class="cls-7" x="26.66" y="0">etFusion </tspan><tspan class="cls-3" x="0" y="30" xml:space="preserve">   </tspan><tspan class="cls-4" x="1.67" y="30">A</tspan><tspan class="cls-5" x="18.11" y="30"> </tspan><tspan class="cls-7" x="24.78" y="30">nnotator</tspan></text>
    <g>
      <circle class="cls-1" cx="125.8" cy="49.67" r="2.09"/>
      <circle class="cls-1" cx="121.28" cy="53.01" r="1.61"/>
      <circle class="cls-1" cx="130.64" cy="44.72" r="2.75"/>
      <circle class="cls-1" cx="136.1" cy="37.92" r="4.04"/>
      <circle class="cls-1" cx="142.08" cy="29.24" r="5.05"/>
      <circle class="cls-1" cx="145.9" cy="17.43" r="5.76"/>
    </g>
  </g>
</svg>