<?xml version="1.0" encoding="UTF-8" ?>
<!DOCTYPE svg PUBLIC "-//W3C//DTD SVG 1.1//EN" "http://www.w3.org/Graphics/SVG/1.1/DTD/svg11.dtd">
<svg width="392pt" height="134pt" viewBox="0 0 392 134" version="1.1" xmlns="http://www.w3.org/2000/svg">
<g id="#fffeffff">
</g>
<g id="#3565b1ff">
<path fill="#3565b1" opacity="1.00" d=" M 188.13 21.11 C 191.16 18.68 194.13 21.85 196.74 23.30 C 207.94 30.14 218.92 37.37 230.29 43.92 C 230.90 45.53 231.39 47.21 231.28 48.96 C 231.25 63.26 231.07 77.56 231.10 91.85 C 229.07 93.66 226.68 94.93 224.27 96.14 C 213.73 102.08 203.10 107.87 192.54 113.78 C 191.20 114.67 189.46 114.54 188.18 113.61 C 176.00 106.11 163.92 98.44 151.71 91.00 C 149.12 89.63 150.01 86.36 149.85 84.00 C 150.18 70.11 149.74 56.22 150.20 42.34 C 162.60 34.85 175.53 28.26 188.13 21.11 M 155.66 45.37 C 155.71 59.18 155.36 72.98 155.57 86.79 C 167.15 94.02 178.89 101.02 190.30 108.52 C 202.08 102.05 213.92 95.65 225.52 88.86 C 225.53 75.24 225.66 61.62 225.66 48.01 C 214.23 40.43 202.27 33.68 190.86 26.09 C 179.02 32.32 167.50 39.15 155.66 45.37 Z" />
</g>
<g id="#525660ff">
<path fill="#525660" opacity="1.00" d=" M 169.72 53.69 C 172.90 46.50 179.98 41.09 187.83 40.22 C 194.50 39.27 201.78 40.67 207.05 45.05 C 211.05 48.47 213.25 53.57 213.99 58.70 C 210.37 58.76 206.74 58.76 203.12 58.73 C 202.18 54.95 199.61 51.63 195.88 50.29 C 191.13 48.80 185.19 49.79 182.10 53.98 C 178.90 57.59 178.24 62.58 178.10 67.22 C 178.16 72.19 178.99 77.65 182.63 81.35 C 186.41 85.35 192.85 86.11 197.71 83.75 C 201.29 81.52 202.61 77.25 203.63 73.40 C 207.23 73.37 210.83 73.37 214.43 73.36 C 213.70 79.43 211.48 85.70 206.61 89.67 C 200.64 94.85 191.99 95.51 184.57 93.70 C 177.09 91.73 171.08 85.67 168.57 78.44 C 165.81 70.46 166.21 61.38 169.72 53.69 Z" />
<path fill="#525660" opacity="1.00" d=" M 14.28 41.28 C 22.54 41.27 30.80 41.17 39.06 41.31 C 45.32 41.44 51.70 44.94 53.99 50.98 C 56.41 57.95 54.91 67.16 48.20 71.23 C 41.39 75.47 33.06 73.58 25.50 74.01 C 25.50 80.17 25.51 86.33 25.50 92.50 C 21.75 92.50 18.00 92.50 14.25 92.50 C 14.27 75.43 14.22 58.35 14.28 41.28 M 25.50 50.00 C 25.50 55.08 25.50 60.16 25.51 65.24 C 30.40 65.02 35.52 65.97 40.23 64.27 C 45.95 62.10 45.48 52.02 39.39 50.65 C 34.87 49.49 30.12 50.18 25.50 50.00 Z" />
<path fill="#525660" opacity="1.00" d=" M 103.65 41.26 C 107.07 41.26 110.48 41.26 113.90 41.21 C 113.82 47.41 113.93 53.61 113.83 59.82 C 119.00 53.01 130.41 52.44 136.02 58.98 C 140.84 64.53 141.80 72.54 140.41 79.55 C 139.38 85.03 136.01 90.43 130.60 92.43 C 124.67 94.50 116.88 93.26 113.35 87.61 C 113.38 89.24 113.39 90.88 113.41 92.52 C 110.16 92.50 106.91 92.50 103.66 92.49 C 103.59 75.41 103.62 58.34 103.65 41.26 M 119.47 62.49 C 114.38 64.70 113.04 70.94 113.66 75.96 C 113.75 79.63 115.78 83.08 118.79 85.13 C 121.43 86.09 124.83 86.11 126.93 83.99 C 130.14 81.32 130.91 76.85 130.72 72.89 C 130.48 69.63 129.76 66.01 127.06 63.86 C 125.10 61.93 121.99 61.62 119.47 62.49 Z" />
<path fill="#525660" opacity="1.00" d=" M 241.36 41.24 C 244.74 41.25 248.12 41.25 251.50 41.26 C 251.48 47.77 251.55 54.28 251.46 60.79 C 255.42 53.95 265.19 52.50 271.55 56.68 C 275.38 59.50 275.85 64.63 276.04 69.00 C 276.26 76.83 276.03 84.67 276.16 92.51 C 272.77 92.50 269.39 92.50 266.01 92.51 C 265.92 85.30 266.14 78.10 265.90 70.90 C 265.67 68.37 265.61 65.29 263.45 63.56 C 260.59 61.96 256.61 62.10 254.05 64.22 C 251.83 66.55 251.75 70.01 251.55 73.03 C 251.41 79.52 251.55 86.01 251.49 92.50 C 248.13 92.51 244.77 92.51 241.40 92.47 C 241.33 75.40 241.42 58.32 241.36 41.24 Z" />
<path fill="#525660" opacity="1.00" d=" M 61.14 55.40 C 64.53 55.37 67.91 55.38 71.30 55.36 C 71.23 62.28 71.21 69.21 71.28 76.13 C 71.43 78.71 71.45 81.65 73.31 83.68 C 75.45 85.75 78.80 85.56 81.41 84.60 C 84.86 83.27 85.34 79.10 85.63 75.89 C 85.92 69.07 85.66 62.23 85.76 55.39 C 89.14 55.38 92.51 55.38 95.89 55.33 C 95.84 67.71 95.90 80.08 95.86 92.46 C 92.65 92.51 89.45 92.51 86.24 92.50 C 86.25 90.65 86.27 88.80 86.30 86.95 C 82.04 93.99 71.68 95.30 65.20 90.70 C 61.52 87.61 61.34 82.52 61.17 78.09 C 61.06 70.53 61.14 62.96 61.14 55.40 Z" />
<path fill="#525660" opacity="1.00" d=" M 284.64 63.65 C 289.78 54.30 303.63 51.23 312.01 58.00 C 317.40 62.40 319.45 69.62 319.05 76.38 C 310.13 76.39 301.21 76.35 292.29 76.39 C 292.73 79.23 293.25 82.43 295.81 84.17 C 300.33 87.08 306.92 85.72 309.73 81.05 C 312.65 80.98 315.58 80.99 318.50 81.01 C 317.19 83.77 315.99 86.69 313.82 88.90 C 306.00 95.37 292.67 94.92 286.23 86.73 C 281.19 80.24 280.96 70.82 284.64 63.65 M 297.37 62.53 C 294.34 63.71 292.73 66.79 292.23 69.85 C 297.80 69.88 303.37 69.90 308.95 69.83 C 308.25 67.76 307.76 65.43 306.04 63.92 C 303.72 61.81 300.24 61.66 297.37 62.53 Z" />
<path fill="#525660" opacity="1.00" d=" M 325.38 55.38 C 328.58 55.37 331.79 55.37 334.99 55.37 C 334.99 57.02 334.99 58.66 334.99 60.31 C 337.11 58.10 339.33 55.68 342.45 54.98 C 347.73 53.43 354.85 54.85 357.15 60.41 C 359.75 57.51 363.04 54.76 367.09 54.46 C 371.47 54.28 376.55 54.97 379.40 58.70 C 381.83 61.52 382.01 65.42 382.02 68.96 C 381.99 76.81 382.00 84.65 382.00 92.50 C 378.62 92.51 375.25 92.51 371.88 92.49 C 371.84 85.29 371.92 78.09 371.86 70.90 C 371.78 68.06 371.70 64.48 368.80 62.99 C 366.56 62.23 363.76 61.97 361.79 63.54 C 359.28 65.49 358.88 68.95 358.86 71.92 C 358.87 78.79 358.87 85.66 358.89 92.54 C 355.46 92.49 352.03 92.49 348.60 92.52 C 348.61 84.69 348.69 76.87 348.59 69.04 C 348.61 66.80 347.41 64.86 346.36 62.97 C 344.05 62.59 341.52 61.97 339.37 63.26 C 336.79 64.77 335.50 67.91 335.63 70.83 C 335.58 78.04 335.68 85.26 335.60 92.47 C 332.18 92.51 328.77 92.50 325.36 92.53 C 325.40 80.15 325.35 67.77 325.38 55.38 Z" />
</g>
</svg>
